<?xml version="1.0" standalone="no"?>
<!DOCTYPE svg PUBLIC "-//W3C//DTD SVG 20010904//EN"
 "http://www.w3.org/TR/2001/REC-SVG-20010904/DTD/svg10.dtd">
<svg version="1.0" xmlns="http://www.w3.org/2000/svg"
 width="200.000000pt" height="200.000000pt" viewBox="0 0 200.000000 200.000000"
 preserveAspectRatio="xMidYMid meet">
<metadata>
Created by potrace 1.11, written by Peter Selinger 2001-2013
</metadata>
<g transform="translate(0.000000,200.000000) scale(0.100000,-0.100000)"
fill="#000000" stroke="none">
<path d="M266 1413 c-61 -35 -80 -51 -83 -70 -4 -18 37 -3 94 34 l52 34 60
-39 c41 -28 62 -37 70 -29 13 13 -24 47 -90 80 l-46 24 -57 -34z"/>
<path d="M1669 1436 c-85 -44 -132 -86 -116 -102 3 -3 36 15 73 40 l68 45 40
-33 c65 -52 96 -64 96 -35 0 6 -69 56 -125 91 -6 4 -22 1 -36 -6z"/>
<path d="M430 1310 c-1 -8 -3 -24 -5 -35 -10 -49 -7 -197 4 -208 6 -6 14 -8
17 -4 10 10 5 213 -6 239 -5 14 -9 17 -10 8z"/>
<path d="M203 1298 c3 -9 1 -19 -6 -22 -9 -3 -8 -5 1 -5 7 -1 10 -6 7 -12 -13
-20 -16 -697 -4 -705 6 -3 14 -1 18 5 7 10 5 586 -2 693 -2 26 -7 51 -12 55
-4 4 -5 0 -2 -9z"/>
<path d="M1569 1303 c0 -5 -3 -57 -5 -117 -4 -82 -2 -111 7 -117 7 -4 16 -6
19 -4 5 3 3 163 -2 233 -1 13 -17 17 -19 5z"/>
<path d="M1799 1299 c-8 -117 -12 -739 -5 -746 4 -4 12 -1 18 5 18 18 11 732
-7 750 -3 3 -5 -1 -6 -9z"/>
<path d="M914 1188 c-49 -16 -93 -30 -99 -31 -5 -2 -96 -31 -202 -65 -139 -45
-191 -66 -187 -76 4 -10 51 2 197 49 106 34 235 75 287 92 69 22 101 28 120
22 14 -5 93 -32 175 -60 83 -28 157 -52 165 -54 8 -2 57 -17 108 -34 107 -35
112 -36 112 -17 0 12 -14 19 -60 31 -29 7 -295 94 -360 117 -175 61 -156 59
-256 26z"/>
<path d="M866 1069 c-84 -21 -116 -34 -187 -76 -68 -39 -141 -109 -183 -177
-46 -73 -56 -98 -70 -191 -4 -20 -9 -41 -11 -45 -6 -10 14 -25 22 -17 3 4 14
43 24 88 33 138 105 239 225 312 71 43 119 62 199 80 54 12 196 15 235 4 8 -2
29 -7 45 -12 117 -31 260 -137 322 -240 32 -54 67 -149 65 -178 0 -10 4 -30 9
-45 15 -38 28 -11 22 45 -10 98 -67 215 -141 289 -145 145 -381 212 -576 163z"/>
</g>
</svg>
